<?xml version="1.0" encoding="UTF-8" standalone="no"?>
<!-- Created with Inkscape (http://www.inkscape.org/) -->

<svg
   width="210mm"
   height="297mm"
   viewBox="0 0 210 297"
   version="1.1"
   id="svg5"
   xml:space="preserve"
   inkscape:version="1.2.2 (b0a8486541, 2022-12-01)"
   sodipodi:docname="antenna.svg"
   xmlns:inkscape="http://www.inkscape.org/namespaces/inkscape"
   xmlns:sodipodi="http://sodipodi.sourceforge.net/DTD/sodipodi-0.dtd"
   xmlns="http://www.w3.org/2000/svg"
   xmlns:svg="http://www.w3.org/2000/svg"><sodipodi:namedview
     id="namedview7"
     pagecolor="#ffffff"
     bordercolor="#000000"
     borderopacity="0.25"
     inkscape:showpageshadow="2"
     inkscape:pageopacity="0.0"
     inkscape:pagecheckerboard="0"
     inkscape:deskcolor="#d1d1d1"
     inkscape:document-units="mm"
     showgrid="false"
     inkscape:zoom="5.1754899"
     inkscape:cx="-17.969313"
     inkscape:cy="65.114609"
     inkscape:window-width="2560"
     inkscape:window-height="1367"
     inkscape:window-x="0"
     inkscape:window-y="0"
     inkscape:window-maximized="1"
     inkscape:current-layer="layer1" /><defs
     id="defs2" /><g
     inkscape:label="Layer 1"
     inkscape:groupmode="layer"
     id="layer1"><path
       style="fill:#000000;stroke-width:0.0105855"
       d="M 0,16.217003 V 0.43400595 h 15.783 15.783002 l -0.0026,15.56334805 -0.0026,15.563348 -15.563348,0.0026 -15.56334764,0.0026 V 16.222299 0.87859742 H 15.777704 31.121403 V 16 31.121403 H 16 0.87859742 V 16.217003 1.3126033 H 15.783001 30.687404 l -0.0026,14.6847507 -0.0026,14.68475 -14.68475,0.0026 -14.6847503,0.0026 V 16.2223 1.7571947 H 15.777736 30.242837 V 16 30.242805 H 16 1.7571947 V 16.217003 2.1912008 H 15.777708 29.798222 l -0.0026,13.8008612 -0.0026,13.800859 -13.800859,0.0026 -13.8008608,0.0026 V 16.217007 2.6357922 H 2.3023486 2.4134964 V 16.105856 29.575918 H 15.994707 29.575918 V 15.989415 2.402911 H 15.777704 1.9794905 V 16.21171 30.020509 H 16 30.020509 V 15.994707 1.968905 H 15.777704 1.5348991 V 16.217003 30.465101 H 16 30.465101 V 15.994707 1.5243135 H 15.782997 1.1008931 V 16.21171 30.899107 H 16 30.899107 V 15.994707 1.0903076 H 15.777704 0.65630167 V 16.217003 31.343699 H 16 31.343699 V 15.994707 0.64571617 H 15.782997 0.22229573 V 16.21171 31.777704 H 16 31.777704 V 15.994707 0.21171022 H 15.888853 0 V 0.10585511 0 H 16 32 V 16 32 H 16 0 Z"
       id="path3315" /></g></svg>
